# xmcd
#
# Track frame offsets:
#	150
#	12966
#	28861
#	42592
#
# Disc length: 798 seconds
#
# Revision: 0
# Processed by: cddbd v1.5.2PL0 Copyright (c) Steve Scherf et al.
# Submitted via: dBpowerAMP V4.0
#
DISCID=2d031c04
DTITLE=Kaci Bolls - 1929
DYEAR=2009
DGENRE=Country
TTITLE0=1929
TTITLE1=I Feel Blue
TTITLE2=I Miss You
TTITLE3=Hide The Sun
EXTD=Kaci Bolls - 1929
EXTT0=
EXTT1=
EXTT2=
EXTT3=
PLAYORDER=
